<?xml version="1.0" standalone="no"?>
<!DOCTYPE svg PUBLIC "-//W3C//DTD SVG 20010904//EN"
 "http://www.w3.org/TR/2001/REC-SVG-20010904/DTD/svg10.dtd">
<svg version="1.0" xmlns="http://www.w3.org/2000/svg"
 width="238.000000pt" height="211.000000pt" viewBox="0 0 238.000000 211.000000"
 preserveAspectRatio="xMidYMid meet">
<metadata>
Created by potrace 1.16, written by Peter Selinger 2001-2019
</metadata>
<g transform="translate(0.000000,211.000000) scale(0.100000,-0.100000)"
fill="#000000" stroke="none">
<path d="M355 2006 c-95 -30 -161 -87 -204 -176 l-26 -55 0 -490 c0 -449 2
-494 18 -543 25 -70 101 -152 169 -183 50 -23 65 -24 298 -27 l244 -3 51 -47
c104 -97 266 -224 449 -350 81 -56 94 -62 141 -62 71 0 89 21 109 130 12 66
46 305 46 325 0 2 75 5 168 7 159 3 170 4 224 31 65 32 121 89 152 156 20 45
21 60 24 535 2 426 1 495 -13 537 -35 106 -106 175 -214 209 -61 19 -89 20
-830 19 -588 0 -775 -3 -806 -13z m1616 -81 c63 -22 118 -70 145 -129 l24 -51
0 -473 c0 -526 1 -513 -68 -586 -66 -69 -92 -76 -304 -76 l-187 0 -6 -57 c-14
-132 -49 -370 -56 -390 -5 -13 -16 -23 -25 -23 -35 0 -392 266 -536 400 l-78
71 -242 0 c-236 -1 -245 0 -294 23 -28 13 -65 41 -82 62 -61 74 -62 81 -62
588 0 442 1 463 21 506 27 60 64 98 124 126 l50 24 766 0 c661 0 772 -2 810
-15z"/>
<path d="M643 1751 c-84 -21 -122 -83 -123 -195 0 -91 23 -138 115 -236 83
-86 95 -106 95 -152 0 -39 -15 -58 -46 -58 -29 0 -37 14 -44 70 l-5 45 -60 0
-60 0 2 -63 c3 -124 58 -182 174 -182 44 0 69 -4 72 -12 4 -8 6 -7 6 3 1 9 13
24 27 34 62 41 87 186 46 277 -11 26 -56 85 -101 132 -82 88 -101 126 -87 180
7 29 41 43 61 26 8 -6 18 -30 22 -53 8 -42 9 -42 57 -45 64 -4 73 5 66 70 -10
96 -59 150 -145 161 -22 3 -55 2 -72 -2z"/>
<path d="M985 1741 c-4 -8 65 -273 120 -456 10 -33 15 -89 14 -169 0 -65 4
-123 9 -128 5 -5 33 -8 63 -6 53 3 54 4 57 36 3 26 7 32 20 28 15 -5 15 -5 0
8 -32 24 -20 246 13 246 4 0 6 6 3 14 -3 8 20 105 51 216 36 128 53 206 47
212 -5 5 -33 8 -63 6 l-53 -3 -34 -137 c-19 -76 -37 -138 -41 -138 -4 0 -22
63 -41 140 l-34 140 -62 0 c-35 0 -65 -4 -69 -9z"/>
<path d="M1539 1644 c0 -60 -2 -118 -4 -129 -7 -33 -7 -396 -1 -403 3 -3 6
-32 6 -65 0 -50 3 -60 19 -64 12 -3 22 -16 24 -32 l4 -26 2 27 c1 23 6 27 39
30 l37 3 3 136 3 136 54 6 c122 13 160 70 160 242 0 132 -17 182 -74 218 -31
19 -53 23 -153 26 l-118 3 -1 -108z m199 -36 c8 -8 12 -46 12 -103 0 -99 -7
-115 -52 -115 l-28 0 0 115 0 115 28 0 c15 0 33 -5 40 -12z"/>
</g>
</svg>
